{
  "accessors": [
    {
      "bufferView": 2,
      "componentType": 5126,
      "count": 25249,
      "max": [
        615.560546875,
        1051.643310546875,
        -143.93601989746094
      ],
      "min": [
        -615.560546875,
        -955.1694946289063,
        -538.1632690429688
      ],
      "type": "VEC3"
    },
    {
      "bufferView": 2,
      "byteOffset": 302988,
      "componentType": 5126,
      "count": 25249,
      "max": [
        1.0,
        0.9999999403953552,
        1.0
      ],
      "min": [
        -1.0,
        -0.9999999403953552,
        -0.999990701675415
      ],
      "type": "VEC3"
    },
    {
      "bufferView": 1,
      "componentType": 5126,
      "count": 25249,
      "max": [
        0.99755859375,
        0.9976882934570313
      ],
      "min": [
        0.0011539459228515625,
        0.001953125
      ],
      "type": "VEC2"
    },
    {
      "bufferView": 1,
      "byteOffset": 201992,
      "componentType": 5126,
      "count": 25249,
      "max": [
        0.99755859375,
        0.9976882934570313
      ],
      "min": [
        0.0011539459228515625,
        0.001953125
      ],
      "type": "VEC2"
    },
    {
      "bufferView": 0,
      "componentType": 5125,
      "count": 80988,
      "type": "SCALAR"
    },
    {
      "bufferView": 2,
      "byteOffset": 605976,
      "componentType": 5126,
      "count": 14748,
      "max": [
        332.36962890625,
        650.1505126953125,
        -0.2511179447174072
      ],
      "min": [
        -332.36968994140625,
        -191.986328125,
        -245.50039672851563
      ],
      "type": "VEC3"
    },
    {
      "bufferView": 2,
      "byteOffset": 782952,
      "componentType": 5126,
      "count": 14748,
      "max": [
        1.0,
        0.9999995231628418,
        1.0
      ],
      "min": [
        -1.0,
        -0.9999808073043823,
        -0.9999709129333496
      ],
      "type": "VEC3"
    },
    {
      "bufferView": 1,
      "byteOffset": 403984,
      "componentType": 5126,
      "count": 14748,
      "max": [
        0.99755859375,
        0.71484375
      ],
      "min": [
        0.00318145751953125,
        0.12744140625
      ],
      "type": "VEC2"
    },
    {
      "bufferView": 1,
      "byteOffset": 521968,
      "componentType": 5126,
      "count": 14748,
      "max": [
        0.99755859375,
        0.71484375
      ],
      "min": [
        0.00318145751953125,
        0.12744140625
      ],
      "type": "VEC2"
    },
    {
      "bufferView": 1,
      "byteOffset": 639952,
      "componentType": 5126,
      "count": 14748,
      "max": [
        0.99755859375,
        0.71484375
      ],
      "min": [
        0.00318145751953125,
        0.12744140625
      ],
      "type": "VEC2"
    },
    {
      "bufferView": 1,
      "byteOffset": 757936,
      "componentType": 5126,
      "count": 14748,
      "max": [
        0.99755859375,
        0.71484375
      ],
      "min": [
        0.00318145751953125,
        0.12744140625
      ],
      "type": "VEC2"
    },
    {
      "bufferView": 1,
      "byteOffset": 875920,
      "componentType": 5126,
      "count": 14748,
      "max": [
        0.99755859375,
        0.71484375
      ],
      "min": [
        0.00318145751953125,
        0.12744140625
      ],
      "type": "VEC2"
    },
    {
      "bufferView": 0,
      "byteOffset": 323952,
      "componentType": 5125,
      "count": 40320,
      "type": "SCALAR"
    },
    {
      "bufferView": 2,
      "byteOffset": 959928,
      "componentType": 5126,
      "count": 20,
      "max": [
        15.36395263671875,
        61.2841796875,
        -380.683837890625
      ],
      "min": [
        -15.36395263671875,
        22.03717041015625,
        -382.1050109863281
      ],
      "type": "VEC3"
    },
    {
      "bufferView": 2,
      "byteOffset": 960168,
      "componentType": 5126,
      "count": 20,
      "max": [
        0.06773614138364792,
        -0.02233095094561577,
        -0.997449517250061
      ],
      "min": [
        -0.06773646175861359,
        -0.022936876863241196,
        -0.997628927230835
      ],
      "type": "VEC3"
    },
    {
      "bufferView": 1,
      "byteOffset": 993904,
      "componentType": 5126,
      "count": 20,
      "max": [
        0.3330078125,
        0.597412109375
      ],
      "min": [
        0.320068359375,
        0.580322265625
      ],
      "type": "VEC2"
    },
    {
      "bufferView": 1,
      "byteOffset": 994064,
      "componentType": 5126,
      "count": 20,
      "max": [
        0.3330078125,
        0.597412109375
      ],
      "min": [
        0.320068359375,
        0.580322265625
      ],
      "type": "VEC2"
    },
    {
      "bufferView": 0,
      "byteOffset": 485232,
      "componentType": 5125,
      "count": 36,
      "type": "SCALAR"
    },
    {
      "bufferView": 2,
      "byteOffset": 960408,
      "componentType": 5126,
      "count": 10405,
      "max": [
        54.4937744140625,
        654.5143432617188,
        -250.30699157714844
      ],
      "min": [
        -52.464599609375,
        273.3721923828125,
        -393.2707824707031
      ],
      "type": "VEC3"
    },
    {
      "bufferView": 2,
      "byteOffset": 1085268,
      "componentType": 5126,
      "count": 10405,
      "max": [
        1.0,
        0.9999929666519165,
        0.999851644039154
      ],
      "min": [
        -1.0,
        -0.9999847412109375,
        -0.999961793422699
      ],
      "type": "VEC3"
    },
    {
      "bufferView": 1,
      "byteOffset": 994224,
      "componentType": 5126,
      "count": 10405,
      "max": [
        0.99755859375,
        0.93280029296875
      ],
      "min": [
        0.67578125,
        0.37060546875
      ],
      "type": "VEC2"
    },
    {
      "bufferView": 1,
      "byteOffset": 1077464,
      "componentType": 5126,
      "count": 10405,
      "max": [
        0.99755859375,
        0.93280029296875
      ],
      "min": [
        0.67578125,
        0.37060546875
      ],
      "type": "VEC2"
    },
    {
      "bufferView": 0,
      "byteOffset": 485376,
      "componentType": 5125,
      "count": 13212,
      "type": "SCALAR"
    },
    {
      "bufferView": 2,
      "byteOffset": 1210128,
      "componentType": 5126,
      "count": 2242,
      "max": [
        41.85711669921875,
        651.913818359375,
        -308.3882141113281
      ],
      "min": [
        -41.8570556640625,
        273.37109375,
        -395.3497314453125
      ],
      "type": "VEC3"
    },
    {
      "bufferView": 2,
      "byteOffset": 1237032,
      "componentType": 5126,
      "count": 2242,
      "max": [
        0.9996734261512756,
        0.4576530456542969,
        0.07836202532052994
      ],
      "min": [
        -0.9996734261512756,
        -0.08608558773994446,
        -0.9961751103401184
      ],
      "type": "VEC3"
    },
    {
      "bufferView": 1,
      "byteOffset": 1160704,
      "componentType": 5126,
      "count": 2242,
      "max": [
        0.4359198808670044,
        1.9999229907989502
      ],
      "min": [
        -0.08871152251958847,
        7.82012939453125e-05
      ],
      "type": "VEC2"
    },
    {
      "bufferView": 0,
      "byteOffset": 538224,
      "componentType": 5125,
      "count": 3054,
      "type": "SCALAR"
    },
    {
      "bufferView": 2,
      "byteOffset": 1263936,
      "componentType": 5126,
      "count": 40,
      "max": [
        12.15228271484375,
        631.0974731445313,
        -321.35662841796875
      ],
      "min": [
        -12.1522216796875,
        554.7526245117188,
        -360.6709899902344
      ],
      "type": "VEC3"
    },
    {
      "bufferView": 2,
      "byteOffset": 1264416,
      "componentType": 5126,
      "count": 40,
      "max": [
        0.01986773870885372,
        0.46188199520111084,
        -0.8869414329528809
      ],
      "min": [
        -0.019924061372876167,
        0.4153660237789154,
        -0.9096544981002808
      ],
      "type": "VEC3"
    },
    {
      "bufferView": 1,
      "byteOffset": 1178640,
      "componentType": 5126,
      "count": 40,
      "max": [
        0.44785401225090027,
        1.0117884874343872
      ],
      "min": [
        0.42241716384887695,
        0.9960702061653137
      ],
      "type": "VEC2"
    },
    {
      "bufferView": 0,
      "byteOffset": 550440,
      "componentType": 5125,
      "count": 108,
      "type": "SCALAR"
    },
    {
      "bufferView": 2,
      "byteOffset": 1264896,
      "componentType": 5126,
      "count": 16,
      "max": [
        9.9085693359375,
        574.9494018554688,
        -338.67938232421875
      ],
      "min": [
        -9.9085693359375,
        561.5872802734375,
        -351.1263122558594
      ],
      "type": "VEC3"
    },
    {
      "bufferView": 2,
      "byteOffset": 1265088,
      "componentType": 5126,
      "count": 16,
      "max": [
        0.0,
        0.6906865239143372,
        0.7231770157814026
      ],
      "min": [
        0.0,
        -0.6906864047050476,
        -0.7231818437576294
      ],
      "type": "VEC3"
    },
    {
      "bufferView": 1,
      "byteOffset": 1178960,
      "componentType": 5126,
      "count": 16,
      "max": [
        0.7299047708511353,
        1.0039502382278442
      ],
      "min": [
        0.7298833727836609,
        1.0039066076278687
      ],
      "type": "VEC2"
    },
    {
      "bufferView": 0,
      "byteOffset": 550872,
      "componentType": 5125,
      "count": 36,
      "type": "SCALAR"
    },
    {
      "bufferView": 2,
      "byteOffset": 1265280,
      "componentType": 5126,
      "count": 120,
      "max": [
        7.71466064453125,
        647.3026733398438,
        -116.41851806640625
      ],
      "min": [
        -7.71466064453125,
        636.5213623046875,
        -148.53695678710938
      ],
      "type": "VEC3"
    },
    {
      "bufferView": 2,
      "byteOffset": 1266720,
      "componentType": 5126,
      "count": 120,
      "max": [
        0.11685414612293243,
        0.995779275894165,
        0.3132999837398529
      ],
      "min": [
        -0.11684894561767578,
        0.8005610108375549,
        -0.599251389503479
      ],
      "type": "VEC3"
    },
    {
      "bufferView": 1,
      "byteOffset": 1179088,
      "componentType": 5126,
      "count": 120,
      "max": [
        0.9995914101600647,
        1.1215686798095703
      ],
      "min": [
        0.7924370169639587,
        0.8862744569778442
      ],
      "type": "VEC2"
    },
    {
      "bufferView": 1,
      "byteOffset": 1180048,
      "componentType": 5126,
      "count": 120,
      "max": [
        1.6044921875,
        0.13623046875
      ],
      "min": [
        1.4150390625,
        0.0078125
      ],
      "type": "VEC2"
    },
    {
      "bufferView": 1,
      "byteOffset": 1181008,
      "componentType": 5126,
      "count": 120,
      "max": [
        1.6044921875,
        0.13623046875
      ],
      "min": [
        1.4150390625,
        0.0078125
      ],
      "type": "VEC2"
    },
    {
      "bufferView": 1,
      "byteOffset": 1181968,
      "componentType": 5126,
      "count": 120,
      "max": [
        1.6044921875,
        0.13623046875
      ],
      "min": [
        1.4150390625,
        0.0078125
      ],
      "type": "VEC2"
    },
    {
      "bufferView": 0,
      "byteOffset": 551016,
      "componentType": 5125,
      "count": 126,
      "type": "SCALAR"
    }
  ],
  "asset": {
    "extras": {
      "author": "Kenny3D89 (https://sketchfab.com/Kenny3D89)",
      "license": "CC-BY-4.0 (http://creativecommons.org/licenses/by/4.0/)",
      "source": "https://sketchfab.com/3d-models/f-4e-phantom-ii-414342cad1e84b20aadace5de69c9569",
      "title": "F-4E Phantom II"
    },
    "generator": "Sketchfab-0.13.0",
    "version": "2.0"
  },
  "bufferViews": [
    {
      "buffer": 0,
      "byteLength": 551520,
      "name": "floatBufferViews",
      "target": 34963
    },
    {
      "buffer": 0,
      "byteLength": 1182928,
      "byteOffset": 551520,
      "byteStride": 8,
      "name": "floatBufferViews",
      "target": 34962
    },
    {
      "buffer": 0,
      "byteLength": 1268160,
      "byteOffset": 1734448,
      "byteStride": 12,
      "name": "floatBufferViews",
      "target": 34962
    }
  ],
  "buffers": [
    {
      "byteLength": 3002608,
      "uri": "scene.bin"
    }
  ],
  "extensionsUsed": [
    "KHR_materials_transmission"
  ],
  "images": [
    {
      "uri": "textures/Part1_Mat_baseColor.png"
    },
    {
      "uri": "textures/Part2_Mat_baseColor.png"
    },
    {
      "uri": "textures/Part2_Mat_transmission.png"
    }
  ],
  "materials": [
    {
      "doubleSided": true,
      "name": "Part1_Mat",
      "pbrMetallicRoughness": {
        "baseColorTexture": {
          "index": 0
        },
        "metallicFactor": 0.2,
        "roughnessFactor": 0.5
      }
    },
    {
      "alphaMode": "BLEND",
      "doubleSided": true,
      "extensions": {
        "KHR_materials_transmission": {
          "transmissionFactor": 1.0,
          "transmissionTexture": {
            "index": 2
          }
        }
      },
      "name": "Part2_Mat",
      "pbrMetallicRoughness": {
        "baseColorTexture": {
          "index": 1
        },
        "metallicFactor": 0.0,
        "roughnessFactor": 0.5
      }
    }
  ],
  "meshes": [
    {
      "name": "Object_0",
      "primitives": [
        {
          "attributes": {
            "NORMAL": 1,
            "POSITION": 0,
            "TEXCOORD_0": 2,
            "TEXCOORD_1": 3
          },
          "indices": 4,
          "material": 0,
          "mode": 4
        }
      ]
    },
    {
      "name": "Object_1",
      "primitives": [
        {
          "attributes": {
            "NORMAL": 6,
            "POSITION": 5,
            "TEXCOORD_0": 7,
            "TEXCOORD_1": 8,
            "TEXCOORD_2": 9,
            "TEXCOORD_3": 10,
            "TEXCOORD_4": 11
          },
          "indices": 12,
          "material": 0,
          "mode": 4
        }
      ]
    },
    {
      "name": "Object_2",
      "primitives": [
        {
          "attributes": {
            "NORMAL": 14,
            "POSITION": 13,
            "TEXCOORD_0": 15,
            "TEXCOORD_1": 16
          },
          "indices": 17,
          "material": 0,
          "mode": 4
        }
      ]
    },
    {
      "name": "Object_3",
      "primitives": [
        {
          "attributes": {
            "NORMAL": 19,
            "POSITION": 18,
            "TEXCOORD_0": 20,
            "TEXCOORD_1": 21
          },
          "indices": 22,
          "material": 0,
          "mode": 4
        }
      ]
    },
    {
      "name": "Object_4",
      "primitives": [
        {
          "attributes": {
            "NORMAL": 24,
            "POSITION": 23,
            "TEXCOORD_0": 25
          },
          "indices": 26,
          "material": 1,
          "mode": 4
        }
      ]
    },
    {
      "name": "Object_5",
      "primitives": [
        {
          "attributes": {
            "NORMAL": 28,
            "POSITION": 27,
            "TEXCOORD_0": 29
          },
          "indices": 30,
          "material": 1,
          "mode": 4
        }
      ]
    },
    {
      "name": "Object_6",
      "primitives": [
        {
          "attributes": {
            "NORMAL": 32,
            "POSITION": 31,
            "TEXCOORD_0": 33
          },
          "indices": 34,
          "material": 1,
          "mode": 4
        }
      ]
    },
    {
      "name": "Object_7",
      "primitives": [
        {
          "attributes": {
            "NORMAL": 36,
            "POSITION": 35,
            "TEXCOORD_0": 37,
            "TEXCOORD_1": 38,
            "TEXCOORD_2": 39,
            "TEXCOORD_3": 40
          },
          "indices": 41,
          "material": 1,
          "mode": 4
        }
      ]
    }
  ],
  "nodes": [
    {
      "children": [
        1
      ],
      "matrix": [
        1.0,
        0.0,
        0.0,
        0.0,
        0.0,
        2.220446049250313e-16,
        -1.0,
        0.0,
        0.0,
        1.0,
        2.220446049250313e-16,
        0.0,
        0.0,
        0.0,
        0.0,
        1.0
      ],
      "name": "Sketchfab_model"
    },
    {
      "children": [
        2
      ],
      "name": "root"
    },
    {
      "children": [
        3
      ],
      "matrix": [
        1.0,
        0.0,
        0.0,
        0.0,
        0.0,
        2.220446049250313e-16,
        1.0,
        0.0,
        0.0,
        -1.0,
        2.220446049250313e-16,
        0.0,
        0.0,
        0.0,
        0.0,
        1.0
      ],
      "name": "GLTF_SceneRootNode"
    },
    {
      "children": [
        4,
        12
      ],
      "matrix": [
        0.009999999776482582,
        0.0,
        0.0,
        0.0,
        0.0,
        -1.6858739316326353e-09,
        0.00999999977648244,
        0.0,
        0.0,
        -0.00999999977648244,
        -1.6858739316326353e-09,
        0.0,
        0.0,
        0.0,
        0.0,
        1.0
      ],
      "name": "F_4E_Phantom_II_10"
    },
    {
      "children": [
        5,
        6,
        8,
        10
      ],
      "name": "Part1_5"
    },
    {
      "mesh": 0,
      "name": "Object_5"
    },
    {
      "children": [
        7
      ],
      "name": "Part1_1_2"
    },
    {
      "mesh": 1,
      "name": "Object_7"
    },
    {
      "children": [
        9
      ],
      "name": "Part1_2_3"
    },
    {
      "mesh": 2,
      "name": "Object_9"
    },
    {
      "children": [
        11
      ],
      "name": "Part1_3_4"
    },
    {
      "mesh": 3,
      "name": "Object_11"
    },
    {
      "children": [
        13,
        14,
        16,
        18
      ],
      "name": "Part2_9"
    },
    {
      "mesh": 4,
      "name": "Object_13"
    },
    {
      "children": [
        15
      ],
      "name": "Part2_1_6"
    },
    {
      "mesh": 5,
      "name": "Object_15"
    },
    {
      "children": [
        17
      ],
      "name": "Part2_2_7"
    },
    {
      "mesh": 6,
      "name": "Object_17"
    },
    {
      "children": [
        19
      ],
      "name": "Part2_3_8"
    },
    {
      "mesh": 7,
      "name": "Object_19"
    }
  ],
  "samplers": [
    {
      "magFilter": 9729,
      "minFilter": 9987,
      "wrapS": 10497,
      "wrapT": 10497
    }
  ],
  "scene": 0,
  "scenes": [
    {
      "name": "Sketchfab_Scene",
      "nodes": [
        0
      ]
    }
  ],
  "textures": [
    {
      "sampler": 0,
      "source": 0
    },
    {
      "sampler": 0,
      "source": 1
    },
    {
      "sampler": 0,
      "source": 2
    }
  ]
}
